<svg width="89" height="24" viewBox="0 0 89 24" fill="none" xmlns="http://www.w3.org/2000/svg">
<path d="M11.9351 0C12.0535 0.0499704 12.1285 0.121163 12.2185 0.212216C12.2407 0.234513 12.2407 0.234513 12.2633 0.257262C12.3119 0.306226 12.3603 0.355413 12.4087 0.404599C12.4425 0.438713 12.4764 0.47281 12.5102 0.506891C12.5991 0.596505 12.6879 0.686298 12.7766 0.776145C12.9188 0.920109 13.0612 1.06385 13.2037 1.20749C13.2535 1.25773 13.3031 1.30808 13.3528 1.35844C13.3829 1.38883 13.4129 1.41922 13.444 1.45053C13.4705 1.47741 13.497 1.5043 13.5244 1.532C13.5847 1.59516 13.5847 1.59516 13.6541 1.62602C13.6541 1.64748 13.6541 1.66894 13.6541 1.69106C13.6755 1.69106 13.6969 1.69106 13.7189 1.69106C13.7189 1.71252 13.7189 1.73398 13.7189 1.7561C13.7403 1.7561 13.7617 1.7561 13.7838 1.7561C13.8236 1.79789 13.8236 1.79789 13.8689 1.85569C13.9366 1.93806 14.0049 2.00939 14.0868 2.07749C14.2982 2.26058 14.492 2.46226 14.689 2.66062C14.7343 2.7061 14.7796 2.75158 14.8249 2.79705C14.9221 2.89454 15.0192 2.99209 15.1162 3.08967C15.2695 3.24388 15.423 3.39796 15.5765 3.55202C15.902 3.87876 16.2274 4.20563 16.5527 4.53252C16.9046 4.88612 17.2566 5.23969 17.6087 5.5931C17.7614 5.74638 17.914 5.89974 18.0666 6.05316C18.1612 6.14829 18.2559 6.24336 18.3506 6.3384C18.3947 6.38262 18.4387 6.42687 18.4827 6.47114C18.5425 6.53136 18.6024 6.59148 18.6624 6.65158C18.6799 6.66929 18.6975 6.68701 18.7155 6.70527C18.8034 6.79468 18.8034 6.79468 18.9081 6.86179C18.9081 6.88325 18.9081 6.90472 18.9081 6.92683C18.9295 6.92683 18.9509 6.92683 18.973 6.92683C19.0162 6.97205 19.0162 6.97205 19.0642 7.03252C19.1447 7.13066 19.2304 7.20546 19.3297 7.28455C19.3297 7.30602 19.3297 7.32748 19.3297 7.34959C19.3618 7.36032 19.3939 7.37106 19.427 7.38211C19.427 7.40358 19.427 7.42504 19.427 7.44715C19.4484 7.44715 19.4698 7.44715 19.4919 7.44715C19.5361 7.5006 19.5791 7.55497 19.6216 7.60976C19.698 7.69026 19.7727 7.76387 19.8608 7.8313C19.9362 7.89429 19.9941 7.95595 20.0574 8.03049C20.1534 8.14317 20.2526 8.23248 20.3676 8.3252C20.4608 8.4126 20.4608 8.4126 20.5297 8.4878C20.5297 8.50927 20.5297 8.53073 20.5297 8.55285C20.5618 8.56358 20.5939 8.57431 20.627 8.58537C20.627 8.60683 20.627 8.62829 20.627 8.65041C20.6581 8.66349 20.6581 8.66349 20.6899 8.67683C20.7568 8.71545 20.7568 8.71545 20.7892 8.81301C20.8322 8.83515 20.8755 8.85674 20.9189 8.87805C20.9719 8.9252 21.0233 8.97422 21.0735 9.02439C21.1023 9.05323 21.1312 9.08207 21.1609 9.11179C21.1907 9.14197 21.2206 9.17215 21.2514 9.20325C21.2817 9.23343 21.3121 9.26362 21.3433 9.29471C21.372 9.32356 21.4007 9.3524 21.4302 9.38211C21.4566 9.40861 21.4829 9.4351 21.5101 9.4624C21.5676 9.52845 21.5676 9.52845 21.5676 9.5935C21.5869 9.60234 21.6063 9.61119 21.6262 9.62031C21.6958 9.65775 21.741 9.69423 21.7966 9.74987C21.8154 9.76847 21.8341 9.78708 21.8534 9.80624C21.8736 9.82658 21.8937 9.84693 21.9145 9.86789C21.936 9.88936 21.9575 9.91083 21.9797 9.93296C22.0508 10.0039 22.1216 10.0751 22.1924 10.1463C22.2417 10.1957 22.2909 10.245 22.3402 10.2943C22.4433 10.3977 22.5464 10.5011 22.6493 10.6047C22.7816 10.7377 22.9141 10.8704 23.0468 11.003C23.1485 11.1047 23.2501 11.2066 23.3516 11.3086C23.4004 11.3576 23.4493 11.4066 23.4982 11.4555C23.5664 11.5237 23.6344 11.5921 23.7023 11.6606C23.7227 11.6809 23.7431 11.7013 23.7642 11.7222C23.9027 11.8625 23.9027 11.8625 23.9027 11.935C23.9348 11.9457 23.9669 11.9564 24 11.9675C23.8845 12.1648 23.7263 12.3142 23.5642 12.4736C23.5367 12.5008 23.5093 12.528 23.481 12.5561C23.4297 12.6069 23.3784 12.6577 23.327 12.7084C23.2757 12.7591 23.2247 12.8102 23.1741 12.8616C23.0942 12.9408 23.012 13.0159 22.9282 13.091C22.6228 13.3686 22.3362 13.6661 22.0459 13.9593C21.931 14.0755 21.816 14.1915 21.7008 14.3074C21.675 14.3336 21.6492 14.3597 21.6226 14.3867C21.5115 14.4986 21.4001 14.608 21.2804 14.7107C21.1209 14.8483 20.974 14.9985 20.8262 15.1484C20.7742 15.2011 20.7221 15.2537 20.6699 15.3063C20.5219 15.4555 20.3741 15.6049 20.2264 15.7545C20.1356 15.8464 20.0446 15.9381 19.9536 16.0298C19.919 16.0647 19.8845 16.0996 19.85 16.1346C19.8021 16.1833 19.754 16.2317 19.7059 16.2801C19.6786 16.3077 19.6513 16.3353 19.6231 16.3638C19.5568 16.4228 19.5568 16.4228 19.4919 16.4228C19.4839 16.4418 19.4758 16.4609 19.4676 16.4806C19.4211 16.5635 19.3704 16.6085 19.2973 16.6687C19.2143 16.7374 19.1633 16.787 19.1027 16.878C19.0813 16.878 19.0599 16.878 19.0378 16.878C19.0378 16.8995 19.0378 16.921 19.0378 16.9431C18.936 17.0545 18.8243 17.1515 18.7084 17.248C18.631 17.3165 18.5593 17.39 18.4865 17.4634C18.4578 17.4923 18.4292 17.5211 18.3997 17.5509C18.3683 17.5826 18.3368 17.6143 18.3054 17.6461C18.13 17.823 17.9544 17.9997 17.7788 18.1764C17.6727 18.2831 17.5667 18.3899 17.4608 18.4968C17.3581 18.6004 17.2553 18.7039 17.1524 18.8073C17.1132 18.8467 17.074 18.8862 17.035 18.9258C16.9805 18.9808 16.9259 19.0356 16.8712 19.0904C16.855 19.1069 16.8389 19.1234 16.8222 19.1403C16.7101 19.252 16.7101 19.252 16.6378 19.252C16.6311 19.2701 16.6245 19.2883 16.6176 19.3069C16.5564 19.41 16.4707 19.4695 16.3784 19.5447C16.357 19.5769 16.3356 19.6091 16.3135 19.6423C16.1758 19.5886 16.0835 19.4858 15.9815 19.3828C15.9615 19.3629 15.9416 19.343 15.921 19.3225C15.8553 19.2569 15.7897 19.1909 15.7242 19.125C15.6785 19.0793 15.6329 19.0336 15.5873 18.9879C15.4918 18.8923 15.3964 18.7965 15.301 18.7006C15.1786 18.5774 15.0559 18.4546 14.933 18.3318C14.8388 18.2376 14.7448 18.1432 14.6508 18.0488C14.6055 18.0034 14.5603 17.9581 14.515 17.9128C14.4518 17.8496 14.3889 17.7863 14.326 17.7229C14.3071 17.7041 14.2882 17.6852 14.2688 17.6658C14.1405 17.5359 14.1405 17.5359 14.1405 17.4634C14.1218 17.4554 14.1031 17.4473 14.0838 17.439C13.9984 17.3915 13.9419 17.3451 13.8811 17.2683C13.886 17.1276 13.9922 17.046 14.0861 16.9534C14.1134 16.926 14.1134 16.926 14.1412 16.898C14.2022 16.8366 14.2637 16.7755 14.3251 16.7145C14.3689 16.6706 14.4127 16.6267 14.4564 16.5827C14.5754 16.4634 14.6947 16.3444 14.814 16.2254C14.9386 16.101 15.063 15.9764 15.1874 15.8518C15.423 15.6159 15.6588 15.3802 15.8948 15.1445C16.1634 14.8763 16.4317 14.6078 16.7 14.3393C17.2519 13.7869 17.8042 13.2348 18.3568 12.6829C17.7805 12.6498 17.2046 12.6254 16.6276 12.6105C16.3595 12.6033 16.0919 12.5937 15.8242 12.5774C14.4761 12.4621 14.4761 12.4621 13.2931 13.0004C12.954 13.3031 12.6638 13.6586 12.4014 14.0288C12.3867 14.0461 12.3719 14.0635 12.3568 14.0813C12.3354 14.0813 12.3139 14.0813 12.2919 14.0813C12.2799 14.1095 12.2799 14.1095 12.2676 14.1382C12.2211 14.2221 12.1692 14.2784 12.0973 14.3415C12.0759 14.3415 12.0545 14.3415 12.0324 14.3415C12.0224 14.3686 12.0224 14.3686 12.0122 14.3963C11.9624 14.4802 11.902 14.5281 11.8263 14.588C11.7503 14.6537 11.6891 14.7294 11.625 14.8065C11.5343 14.914 11.4368 15.008 11.327 15.0955C11.2516 15.1481 11.2516 15.1481 11.2216 15.2195C11.2002 15.2195 11.1788 15.2195 11.1568 15.2195C11.1457 15.2477 11.1457 15.2477 11.1345 15.2764C11.0806 15.369 11.0143 15.4146 10.9297 15.4797C10.8389 15.566 10.756 15.6555 10.6764 15.752C10.6082 15.8329 10.5378 15.9028 10.4571 15.9709C10.2931 16.113 10.1415 16.2664 9.98919 16.4207C9.94686 16.4634 9.94686 16.4634 9.90367 16.5069C9.83481 16.5764 9.76602 16.6459 9.6973 16.7154C9.74759 16.8219 9.80097 16.8914 9.88581 16.9736C9.90897 16.9963 9.93213 17.0189 9.956 17.0423C9.97765 17.0632 9.99931 17.0841 10.0216 17.1057C10.1077 17.19 10.187 17.2722 10.2628 17.3659C10.3258 17.4398 10.3791 17.4934 10.4534 17.5528C10.4821 17.577 10.5109 17.6011 10.5405 17.626C10.5405 17.6475 10.5405 17.6689 10.5405 17.6911C10.5579 17.6978 10.5753 17.7045 10.5932 17.7114C10.7001 17.7734 10.7868 17.8552 10.8649 17.9512C10.8649 17.9727 10.8649 17.9941 10.8649 18.0163C10.8863 18.0163 10.9077 18.0163 10.9297 18.0163C10.9729 18.0615 10.9729 18.0615 11.0209 18.122C11.1019 18.2201 11.1856 18.2961 11.2865 18.374C11.3729 18.4563 11.4507 18.5391 11.5257 18.6321C11.6047 18.73 11.6957 18.8066 11.7939 18.8847C11.8084 18.8986 11.8229 18.9125 11.8378 18.9268C11.8378 18.9483 11.8378 18.9698 11.8378 18.9919C11.8652 19.0034 11.8652 19.0034 11.893 19.0152C11.9846 19.0664 12.0479 19.129 12.1221 19.2033C12.151 19.2321 12.1798 19.2609 12.2095 19.2906C12.2394 19.3208 12.2692 19.351 12.3 19.3821C12.3455 19.4274 12.3455 19.4274 12.392 19.4736C12.4207 19.5024 12.4493 19.5313 12.4789 19.561C12.5052 19.5875 12.5316 19.614 12.5587 19.6413C12.6162 19.7073 12.6162 19.7073 12.6162 19.7724C12.6352 19.7808 12.6541 19.7892 12.6736 19.7979C12.7516 19.8405 12.8028 19.8866 12.8653 19.9497C12.8881 19.9726 12.911 19.9955 12.9345 20.0191C12.9589 20.0439 12.9832 20.0686 13.0083 20.0941C13.0337 20.1196 13.059 20.1451 13.0851 20.1714C13.1661 20.253 13.2469 20.3348 13.3277 20.4167C13.382 20.4714 13.4363 20.5261 13.4906 20.5809C13.5905 20.6816 13.6903 20.7823 13.79 20.8832C13.885 20.9793 13.9802 21.0752 14.0757 21.1707C14.1946 21.29 14.3135 21.4092 14.4324 21.5285C14.3902 21.6218 14.3453 21.6891 14.2732 21.7616C14.2539 21.7812 14.2347 21.8007 14.2148 21.8209C14.1937 21.842 14.1726 21.863 14.1509 21.8847C14.1286 21.9072 14.1064 21.9297 14.0834 21.9529C14.0098 22.0272 13.936 22.1012 13.8621 22.1752C13.8108 22.2267 13.7596 22.2782 13.7084 22.3297C13.601 22.4376 13.4936 22.5454 13.386 22.653C13.248 22.7912 13.1104 22.9298 12.9729 23.0684C12.8672 23.1748 12.7613 23.281 12.6553 23.3872C12.6045 23.4382 12.5537 23.4893 12.5031 23.5404C12.4322 23.6118 12.3611 23.6829 12.2899 23.7539C12.269 23.7752 12.248 23.7964 12.2264 23.8183C12.207 23.8376 12.1875 23.8569 12.1674 23.8768C12.1507 23.8936 12.1339 23.9104 12.1166 23.9278C12.0544 23.9755 12.0134 23.9936 11.9351 24C11.8811 23.9687 11.8811 23.9687 11.8247 23.9155C11.802 23.8942 11.7792 23.8729 11.7558 23.851C11.7294 23.825 11.7029 23.7991 11.6757 23.7724C11.6606 23.7576 11.6455 23.7429 11.63 23.7277C11.498 23.5981 11.3677 23.4669 11.2374 23.3356C11.1935 23.2914 11.1496 23.2473 11.1057 23.2032C11.0115 23.1085 10.9174 23.0139 10.8233 22.9192C10.6746 22.7694 10.5257 22.6198 10.3769 22.4703C9.95364 22.0452 9.53063 21.6198 9.10775 21.1944C8.87387 20.959 8.63988 20.7238 8.40576 20.4888C8.25768 20.3401 8.10974 20.1912 7.96192 20.0423C7.8701 19.9498 7.77814 19.8575 7.68615 19.7653C7.64347 19.7224 7.60084 19.6795 7.55828 19.6365C7.50026 19.5779 7.44204 19.5195 7.38377 19.4612C7.36691 19.4441 7.35005 19.427 7.33268 19.4093C7.25099 19.328 7.17786 19.2628 7.07027 19.2195C7.08097 19.1766 7.09168 19.1337 7.1027 19.0894C7.08387 19.0811 7.06504 19.0728 7.04564 19.0642C6.9656 19.0203 6.91253 18.9719 6.84811 18.9072C6.82356 18.8827 6.79901 18.8582 6.77372 18.833C6.74697 18.806 6.72022 18.779 6.69265 18.7511C6.64977 18.7082 6.64977 18.7082 6.60603 18.6644C6.5267 18.585 6.44752 18.5054 6.3684 18.4257C6.28305 18.3399 6.19751 18.2542 6.112 18.1685C5.96385 18.02 5.81583 17.8714 5.66789 17.7226C5.45399 17.5076 5.23991 17.2928 5.02579 17.078C4.6784 16.7296 4.33116 16.3809 3.98401 16.0322C3.64677 15.6935 3.30945 15.3548 2.97205 15.0162C2.94086 14.9849 2.94086 14.9849 2.90904 14.953C2.80472 14.8483 2.7004 14.7436 2.59608 14.6389C1.73051 13.7703 0.86518 12.9015 0 12.0325C0.0577939 11.9083 0.130092 11.8292 0.227447 11.732C0.243961 11.7155 0.260476 11.6989 0.277491 11.6818C0.332012 11.6272 0.38676 11.5728 0.441512 11.5184C0.479583 11.4804 0.517641 11.4423 0.555685 11.4042C0.655878 11.304 0.756264 11.204 0.856692 11.104C0.95847 11.0026 1.06007 10.901 1.16168 10.7995C1.34079 10.6205 1.52007 10.4417 1.69946 10.263C1.78177 10.1809 1.86387 10.0986 1.94595 10.0163C2.04203 9.92005 2.13814 9.82387 2.23425 9.72769C2.52635 9.43533 2.81836 9.14289 3.11033 8.85041C3.28696 8.67346 3.46362 8.49655 3.64036 8.31971C3.79489 8.16508 3.94937 8.01039 4.10378 7.85564C4.18542 7.77382 4.26708 7.69203 4.34882 7.61031C4.43983 7.51932 4.53071 7.4282 4.62158 7.33706C4.64869 7.31 4.6758 7.28293 4.70373 7.25505C4.74076 7.21785 4.74076 7.21785 4.77854 7.1799C4.80004 7.15837 4.82153 7.13685 4.84368 7.11468C4.9033 7.05355 4.9033 7.05355 4.96216 6.95935C4.99569 6.92848 5.03026 6.89874 5.06554 6.86992C5.18977 6.76555 5.30284 6.65253 5.41622 6.53659C5.47025 6.48237 5.52431 6.42817 5.57838 6.37398C5.65329 6.29876 5.72818 6.2235 5.80306 6.14825C5.84923 6.10187 5.89539 6.05548 5.94155 6.0091C5.96609 5.98444 5.99063 5.95979 6.01592 5.93438C6.56334 5.38437 7.11092 4.83451 7.65862 4.28478C7.73945 4.20365 7.82028 4.12252 7.90111 4.04139C7.91719 4.02524 7.93328 4.00909 7.94986 3.99245C8.21111 3.73021 8.47224 3.46785 8.73334 3.20546C9.00142 2.93604 9.26963 2.66675 9.53795 2.39757C9.68859 2.24643 9.83918 2.09523 9.98963 1.9439C10.1309 1.80178 10.2724 1.65982 10.4139 1.51797C10.466 1.46574 10.518 1.41346 10.57 1.36112C10.6406 1.28999 10.7114 1.21906 10.7823 1.14817C10.803 1.12715 10.8238 1.10613 10.8452 1.08447C10.9872 0.943089 10.9872 0.943089 11.0595 0.943089C11.0715 0.914919 11.0715 0.914919 11.0838 0.886179C11.1303 0.802296 11.1822 0.745977 11.2541 0.682927C11.2755 0.682927 11.2969 0.682927 11.3189 0.682927C11.3189 0.661463 11.3189 0.64 11.3189 0.617886C11.3403 0.617886 11.3617 0.617886 11.3838 0.617886C11.4052 0.574959 11.4266 0.532033 11.4486 0.487805C11.4701 0.487805 11.4915 0.487805 11.5135 0.487805C11.5251 0.459697 11.5251 0.459697 11.5368 0.431021C11.5872 0.342209 11.6466 0.29131 11.7243 0.22561C11.8114 0.151762 11.8714 0.0958673 11.9351 0ZM11.9208 4.85181C11.8933 4.87939 11.8933 4.87939 11.8653 4.90753C11.8336 4.93915 11.8336 4.93915 11.8012 4.97142C11.7779 4.99497 11.7546 5.01852 11.7306 5.04278C11.7059 5.0675 11.6812 5.09222 11.6557 5.11769C11.5724 5.2012 11.4892 5.28493 11.406 5.36867C11.3466 5.42834 11.2871 5.48799 11.2275 5.54762C11.0991 5.6764 10.9707 5.80529 10.8425 5.93427C10.6569 6.12093 10.471 6.3074 10.2852 6.49384C9.98347 6.79653 9.68189 7.09936 9.38039 7.40229C9.08786 7.69621 8.79526 7.99007 8.50256 8.28383C8.48456 8.3019 8.46655 8.31998 8.448 8.3386C8.35764 8.42928 8.26728 8.51997 8.17692 8.61065C7.55349 9.23634 6.93019 9.86217 6.30704 10.4882C6.28074 10.5146 6.25444 10.541 6.22734 10.5682C6.17892 10.6169 6.13049 10.6655 6.08207 10.7142C5.96828 10.8285 5.85446 10.9427 5.74054 11.0569C5.72352 11.074 5.70651 11.091 5.68898 11.1086C5.44662 11.3516 5.44662 11.3516 5.39822 11.4001C5.35342 11.4451 5.30886 11.4903 5.26432 11.5356C5.18919 11.6098 5.18919 11.6098 5.08987 11.6911C5.00046 11.7673 4.92935 11.8367 4.86486 11.935C4.90494 12.0555 4.96108 12.0862 5.05946 12.1626C5.07016 12.1841 5.08087 12.2055 5.09189 12.2276C5.1133 12.2276 5.1347 12.2276 5.15676 12.2276C5.15676 12.2491 5.15676 12.2706 5.15676 12.2927C5.17816 12.2927 5.19957 12.2927 5.22162 12.2927C5.23232 12.3249 5.24303 12.3571 5.25405 12.3902C5.27546 12.3902 5.29687 12.3902 5.31892 12.3902C5.32962 12.4224 5.34032 12.4546 5.35135 12.4878C5.39831 12.5285 5.44544 12.569 5.49388 12.6079C5.64207 12.729 5.76292 12.8753 5.88484 13.022C5.90144 13.0389 5.91803 13.0558 5.93514 13.0732C5.95654 13.0732 5.97795 13.0732 6 13.0732C6 13.0946 6 13.1161 6 13.1382C6.02141 13.1382 6.04281 13.1382 6.06487 13.1382C6.07302 13.1574 6.08117 13.1765 6.08957 13.1963C6.13474 13.2773 6.1823 13.3211 6.25338 13.3801C6.38295 13.4903 6.50664 13.5998 6.61014 13.7358C6.68998 13.8319 6.77816 13.9081 6.87276 13.9892C6.97606 14.08 7.07158 14.178 7.16757 14.2764C7.2067 14.3157 7.2067 14.3157 7.24662 14.3557C7.26334 14.3725 7.28007 14.3892 7.2973 14.4065C7.41253 14.3573 7.48641 14.2899 7.57451 14.2014C7.60393 14.172 7.63335 14.1426 7.66365 14.1123C7.69601 14.0796 7.72837 14.0469 7.76072 14.0143C7.79497 13.9799 7.82923 13.9455 7.86351 13.9112C7.95653 13.818 8.04935 13.7245 8.14214 13.631C8.23934 13.5331 8.33672 13.4355 8.43408 13.3377C8.6186 13.1525 8.80295 12.9671 8.98724 12.7817C9.1964 12.5713 9.40573 12.361 9.61508 12.1508C9.9731 11.7912 10.331 11.4315 10.6887 11.0717C10.7182 11.042 10.7477 11.0123 10.7781 10.9817C10.8036 10.9561 10.8292 10.9304 10.8554 10.9039C10.88 10.8793 10.9045 10.8547 10.9297 10.8293C10.9718 10.7868 10.9718 10.7868 11.0147 10.7435C11.1268 10.6319 11.2455 10.5279 11.3636 10.4228C11.4484 10.3457 11.4484 10.3457 11.5083 10.2642C11.5682 10.1912 11.6248 10.1362 11.6959 10.0752C11.8603 9.93425 12.0105 9.78039 12.1622 9.62602C12.2175 9.5697 12.2729 9.51347 12.3284 9.45732C12.3525 9.43271 12.3767 9.4081 12.4016 9.38275C12.4681 9.31852 12.5354 9.25806 12.6054 9.19781C12.7704 9.05405 12.9236 8.89905 13.0777 8.74365C13.109 8.71227 13.1402 8.68091 13.1714 8.64955C13.253 8.56767 13.3344 8.4857 13.4158 8.40371C13.4985 8.32044 13.5813 8.23727 13.6641 8.15409C13.7854 8.03227 13.9065 7.9104 14.0277 7.78847C14.1301 7.68543 14.2325 7.58247 14.3351 7.47967C14.3599 7.45486 14.3846 7.43004 14.4101 7.40447C14.4282 7.38636 14.4463 7.36825 14.4649 7.34959C14.4194 7.24638 14.3659 7.17761 14.2859 7.0987C14.2634 7.07638 14.2409 7.05406 14.2178 7.03106C14.1943 7.00807 14.1708 6.98507 14.1466 6.96138C14.112 6.92708 14.112 6.92708 14.0766 6.89209C14.0332 6.8491 13.9897 6.80618 13.9461 6.76335C13.8699 6.68819 13.7945 6.61236 13.7189 6.53659C13.6624 6.48002 13.6058 6.42346 13.5492 6.36691C13.3862 6.20396 13.2232 6.04094 13.0603 5.87786C12.9619 5.77941 12.8635 5.68098 12.7651 5.58263C12.6696 5.4872 12.5741 5.3917 12.4788 5.29614C12.4424 5.25977 12.4061 5.22342 12.3697 5.18711C12.319 5.13652 12.2684 5.08582 12.2178 5.0351C12.189 5.00627 12.1602 4.97744 12.1305 4.94774C12.0649 4.87805 12.0649 4.87805 12.0324 4.81301C11.9658 4.8061 11.9658 4.8061 11.9208 4.85181Z" fill="#1E3A8A"/>
<path d="M9.63877 2.37785C9.71751 2.41651 9.76862 2.46619 9.83049 2.52854C9.86931 2.56732 9.86931 2.56732 9.90891 2.60688C9.93661 2.63506 9.96432 2.66325 9.99286 2.69228C10.0217 2.72121 10.0504 2.75014 10.0801 2.77995C10.1411 2.84133 10.202 2.90278 10.2627 2.96441C10.3399 3.04273 10.4174 3.12076 10.495 3.1987C10.5696 3.27369 10.6441 3.34884 10.7185 3.42399C10.746 3.45171 10.7736 3.47943 10.8019 3.50799C10.9421 3.65028 11.078 3.7946 11.2078 3.9466C11.2736 4.02262 11.3444 4.09238 11.4162 4.16268C11.4641 4.21061 11.5119 4.25859 11.5598 4.30661C11.5856 4.3325 11.6114 4.35838 11.638 4.38505C11.7587 4.50605 11.8793 4.62705 12 4.74805C11.9159 4.91223 11.7935 5.02901 11.6643 5.15751C11.6398 5.1821 11.6154 5.20669 11.5902 5.23203C11.5081 5.31444 11.4258 5.39662 11.3434 5.4788C11.2846 5.53782 11.2257 5.59685 11.1669 5.6559C11.0401 5.78306 10.9132 5.9101 10.7862 6.03706C10.6024 6.2208 10.4188 6.40471 10.2353 6.58867C9.93725 6.88738 9.63907 7.18594 9.34079 7.48441C9.05148 7.77391 8.76223 8.06349 8.47307 8.35315C8.45526 8.37099 8.43746 8.38882 8.41911 8.4072C8.32977 8.4967 8.24042 8.58621 8.15108 8.67571C7.53505 9.29285 6.91888 9.90984 6.30257 10.5267C6.27657 10.5527 6.25057 10.5787 6.22379 10.6055C6.17593 10.6534 6.12808 10.7013 6.08022 10.7492C5.85997 10.9689 5.85997 10.9689 5.64185 11.1908C5.60786 11.2254 5.57386 11.2601 5.53986 11.2948C5.52258 11.3127 5.50529 11.3306 5.48748 11.349C5.44332 11.3938 5.39746 11.4369 5.35135 11.4798C5.32995 11.4798 5.30854 11.4798 5.28649 11.4798C5.2798 11.4979 5.27311 11.516 5.26622 11.5346C5.21581 11.6196 5.15329 11.6693 5.07669 11.7303C5.00541 11.7908 4.95084 11.8586 4.8973 11.935C4.8973 11.9565 4.8973 11.978 4.8973 12.0001C4.92941 12.0269 4.96151 12.0537 4.99459 12.0814C5.0267 12.1082 5.05881 12.135 5.09189 12.1627C5.09189 12.1841 5.09189 12.2056 5.09189 12.2277C5.1133 12.2277 5.1347 12.2277 5.15676 12.2277C5.15676 12.2492 5.15676 12.2707 5.15676 12.2928C5.17816 12.2928 5.19957 12.2928 5.22162 12.2928C5.23968 12.3156 5.25774 12.3384 5.27635 12.3619C5.35416 12.4589 5.43666 12.53 5.53328 12.6072C5.54816 12.6215 5.56304 12.6358 5.57838 12.6505C5.57838 12.672 5.57838 12.6934 5.57838 12.7155C5.59845 12.7236 5.61851 12.7316 5.63919 12.7399C5.7212 12.7883 5.73141 12.8273 5.77297 12.9107C5.83567 12.9462 5.83567 12.9462 5.9027 12.9757C5.95946 13.0245 5.95946 13.0245 6 13.0733C6 13.0947 6 13.1162 6 13.1383C6.02141 13.1383 6.04281 13.1383 6.06487 13.1383C6.08293 13.1611 6.10099 13.1839 6.11959 13.2074C6.19741 13.3044 6.2799 13.3756 6.37652 13.4527C6.3914 13.467 6.40629 13.4813 6.42162 13.496C6.42162 13.5175 6.42162 13.5389 6.42162 13.5611C6.44035 13.5684 6.45908 13.5758 6.47838 13.5834C6.57066 13.6374 6.61416 13.7048 6.68108 13.7887C6.72098 13.8253 6.7616 13.8612 6.8027 13.8964C6.94144 14.0157 7.08033 14.1377 7.2 14.2765C7.2 14.298 7.2 14.3194 7.2 14.3415C7.25351 14.363 7.30703 14.3845 7.36216 14.4066C7.22806 14.5666 7.08897 14.7183 6.94211 14.8666C6.90964 14.8995 6.90964 14.8995 6.87651 14.9332C6.80564 15.005 6.73464 15.0768 6.6636 15.1485C6.63925 15.173 6.6149 15.1976 6.58981 15.223C6.46128 15.3527 6.33263 15.4823 6.20391 15.6119C6.09735 15.7192 5.99104 15.8267 5.88493 15.9344C5.75658 16.0647 5.62784 16.1946 5.4988 16.3242C5.44971 16.3737 5.40075 16.4232 5.35194 16.473C5.28393 16.5422 5.21544 16.6109 5.1468 16.6795C5.11657 16.7106 5.11657 16.7106 5.08573 16.7423C5.02898 16.7984 5.02898 16.7984 4.92973 16.8781C4.78219 16.8639 4.70118 16.7598 4.60217 16.659C4.58246 16.6393 4.56275 16.6196 4.54244 16.5993C4.47628 16.5332 4.41047 16.4666 4.34465 16.4001C4.29736 16.3527 4.25005 16.3052 4.20272 16.2578C4.07412 16.1289 3.94583 15.9997 3.81759 15.8704C3.68358 15.7354 3.54929 15.6007 3.41504 15.466C3.16077 15.2107 2.90675 14.9552 2.65282 14.6996C2.36375 14.4087 2.0744 14.118 1.78503 13.8274C1.18972 13.2294 0.594744 12.6311 0 12.0326C0.0577939 11.9084 0.130092 11.8293 0.227447 11.7321C0.243961 11.7155 0.260476 11.699 0.277491 11.6819C0.332012 11.6273 0.38676 11.5729 0.441512 11.5185C0.479583 11.4804 0.51764 11.4424 0.555684 11.4043C0.655877 11.3041 0.756264 11.2041 0.856692 11.1041C0.95847 11.0027 1.06007 10.9011 1.16168 10.7996C1.34079 10.6206 1.52007 10.4418 1.69946 10.2631C1.78176 10.181 1.86387 10.0987 1.94595 10.0163C2.04203 9.92013 2.13814 9.82396 2.23425 9.72777C2.52635 9.43541 2.81836 9.14297 3.11033 8.85049C3.28696 8.67354 3.46362 8.49663 3.64036 8.31979C3.79489 8.16516 3.94937 8.01048 4.10378 7.85572C4.18542 7.7739 4.26708 7.69212 4.34882 7.6104C4.43983 7.5194 4.53071 7.42828 4.62158 7.33715C4.64869 7.31008 4.6758 7.28301 4.70373 7.25513C4.74076 7.21793 4.74076 7.21793 4.77854 7.17998C4.80004 7.15846 4.82153 7.13693 4.84368 7.11476C4.9033 7.05363 4.9033 7.05363 4.96216 6.95943C4.99569 6.92857 5.03026 6.89882 5.06554 6.87C5.18977 6.76563 5.30284 6.65261 5.41622 6.53667C5.47027 6.48246 5.52432 6.42826 5.57838 6.37406C5.63509 6.31688 5.69178 6.25967 5.74845 6.20244C5.78239 6.16817 5.81633 6.1339 5.85027 6.09963C5.86821 6.08152 5.88615 6.0634 5.90463 6.04474C6.3178 5.62757 6.73145 5.21086 7.14535 4.79442C7.38456 4.55372 7.62362 4.31287 7.86232 4.07166C8.07082 3.86098 8.27961 3.65058 8.48873 3.44052C8.59937 3.32937 8.70987 3.21808 8.82003 3.10644C8.92347 3.00161 9.02729 2.89717 9.13141 2.79302C9.16962 2.75465 9.20769 2.71615 9.24562 2.6775C9.29725 2.62492 9.34936 2.57287 9.40161 2.52091C9.44524 2.47694 9.44524 2.47694 9.48976 2.43208C9.56757 2.37406 9.56757 2.37406 9.63877 2.37785Z" fill="#1E3A8A"/>
<path d="M12.7459 9.2032C13.2066 9.20015 13.6672 9.19787 14.1279 9.19646C14.3418 9.19578 14.5557 9.19486 14.7697 9.19338C14.9762 9.19197 15.1827 9.19119 15.3892 9.19085C15.4679 9.19061 15.5466 9.19015 15.6253 9.18944C15.7357 9.1885 15.8461 9.18837 15.9565 9.18843C15.9889 9.18796 16.0214 9.18749 16.0548 9.18701C16.3609 9.18881 16.5415 9.28826 16.7625 9.49908C16.7801 9.51579 16.7977 9.53251 16.8158 9.54973C17.0518 9.77551 17.2816 10.0078 17.5117 10.2396C17.5961 10.3246 17.6805 10.4095 17.765 10.4944C17.9441 10.6743 18.123 10.8544 18.302 11.0345C18.5101 11.244 18.7183 11.4534 18.9266 11.6627C19.0095 11.7459 19.0922 11.8293 19.175 11.9127C19.226 11.964 19.2771 12.0154 19.3282 12.0667C19.3509 12.0896 19.3735 12.1125 19.3969 12.1361C19.5232 12.2628 19.6532 12.3828 19.7885 12.4999C19.8741 12.5752 19.954 12.6548 20.0343 12.7358C20.0509 12.7526 20.0676 12.7693 20.0847 12.7865C20.1203 12.8224 20.1559 12.8582 20.1914 12.8941C20.2476 12.9509 20.304 13.0076 20.3603 13.0643C20.4797 13.1843 20.599 13.3045 20.7182 13.4247C20.857 13.5647 20.9959 13.7046 21.1349 13.8444C21.1904 13.9002 21.2457 13.9561 21.3011 14.0121C21.335 14.0462 21.3689 14.0803 21.4028 14.1144C21.4323 14.1442 21.4619 14.174 21.4923 14.2046C21.5672 14.2802 21.5672 14.2802 21.6648 14.3414C21.6271 14.3801 21.5892 14.4187 21.5513 14.4573C21.5302 14.4788 21.5092 14.5003 21.4874 14.5224C21.4242 14.5834 21.3604 14.6402 21.2937 14.6972C21.1304 14.8401 20.9784 14.994 20.8261 15.1484C20.7741 15.2011 20.722 15.2537 20.6699 15.3062C20.5219 15.4554 20.374 15.6049 20.2263 15.7544C20.1355 15.8463 20.0446 15.9381 19.9535 16.0297C19.9189 16.0646 19.8844 16.0996 19.8499 16.1346C19.802 16.1832 19.754 16.2316 19.7058 16.28C19.6785 16.3077 19.6512 16.3353 19.6231 16.3637C19.5567 16.4227 19.5567 16.4227 19.4918 16.4227C19.4838 16.4418 19.4758 16.4609 19.4675 16.4805C19.421 16.5634 19.3703 16.6084 19.2972 16.6686C19.2143 16.7373 19.1632 16.7869 19.1026 16.878C19.0812 16.878 19.0598 16.878 19.0378 16.878C19.0378 16.8995 19.0378 16.9209 19.0378 16.943C18.9359 17.0544 18.8243 17.1515 18.7084 17.2479C18.6309 17.3164 18.5593 17.3899 18.4864 17.4634C18.4578 17.4922 18.4292 17.5211 18.3996 17.5508C18.3682 17.5825 18.3368 17.6143 18.3053 17.646C18.1299 17.8229 17.9544 17.9997 17.7787 18.1763C17.6727 18.283 17.5666 18.3898 17.4607 18.4967C17.3581 18.6004 17.2553 18.7039 17.1523 18.8073C17.1131 18.8467 17.074 18.8862 17.0349 18.9257C16.9805 18.9807 16.9259 19.0356 16.8712 19.0904C16.855 19.1068 16.8388 19.1233 16.8221 19.1403C16.71 19.252 16.71 19.252 16.6378 19.252C16.6277 19.2791 16.6277 19.2791 16.6175 19.3069C16.5564 19.41 16.4706 19.4694 16.3783 19.5447C16.3569 19.5769 16.3355 19.609 16.3135 19.6422C16.1758 19.5885 16.0834 19.4857 15.9814 19.3828C15.9615 19.3629 15.9415 19.343 15.921 19.3225C15.8552 19.2568 15.7896 19.1909 15.7241 19.1249C15.6785 19.0792 15.6329 19.0336 15.5872 18.9879C15.4917 18.8922 15.3963 18.7964 15.301 18.7005C15.1785 18.5774 15.0558 18.4545 14.933 18.3318C14.8388 18.2375 14.7447 18.1431 14.6507 18.0487C14.6055 18.0033 14.5602 17.958 14.5149 17.9127C14.4518 17.8496 14.3889 17.7862 14.326 17.7228C14.3071 17.704 14.2882 17.6852 14.2687 17.6658C14.1405 17.5358 14.1405 17.5358 14.1405 17.4634C14.1124 17.4513 14.1124 17.4513 14.0837 17.439C13.9983 17.3914 13.9419 17.345 13.881 17.2682C13.8859 17.1276 13.9922 17.0459 14.086 16.9534C14.1042 16.9351 14.1224 16.9168 14.1411 16.8979C14.2022 16.8365 14.2636 16.7755 14.325 16.7144C14.3688 16.6705 14.4126 16.6266 14.4564 16.5827C14.5753 16.4633 14.6946 16.3443 14.814 16.2253C14.9386 16.101 15.0629 15.9763 15.1873 15.8518C15.4229 15.6158 15.6588 15.3801 15.8947 15.1445C16.1633 14.8763 16.4316 14.6078 16.6999 14.3392C17.2519 13.7868 17.8042 13.2347 18.3567 12.6829C18.3335 12.6827 18.3102 12.6826 18.2863 12.6825C17.7188 12.6791 17.1513 12.6755 16.5839 12.6718C16.3094 12.67 16.035 12.6683 15.7605 12.6667C15.5211 12.6653 15.2816 12.6638 15.0422 12.6622C14.9156 12.6613 14.7891 12.6605 14.6625 12.6598C13.1765 12.6517 13.1765 12.6517 12.9895 12.5072C12.7925 12.2984 12.741 12.103 12.7422 11.8207C12.7422 11.7925 12.7422 11.7643 12.7422 11.7352C12.7422 11.6417 12.7425 11.5483 12.7427 11.4548C12.7428 11.3901 12.7428 11.3253 12.7429 11.2606C12.743 11.0901 12.7433 10.9196 12.7437 10.7491C12.744 10.5752 12.7441 10.4012 12.7443 10.2273C12.7447 9.88591 12.7452 9.54455 12.7459 9.2032Z" fill="#1E3A8A"/>
<path d="M9.60004 16.748C9.71496 16.7969 9.7872 16.8639 9.87369 16.9533C9.89924 16.9796 9.92478 17.0058 9.9511 17.0329C9.97438 17.0569 9.99767 17.081 10.0217 17.1058C10.0658 17.149 10.0658 17.149 10.1109 17.1932C10.1838 17.2684 10.1838 17.2684 10.2629 17.3659C10.3258 17.4398 10.3791 17.4935 10.4534 17.5529C10.4822 17.5771 10.5109 17.6012 10.5406 17.6261C10.5406 17.6476 10.5406 17.669 10.5406 17.6911C10.558 17.6978 10.5754 17.7046 10.5933 17.7115C10.7001 17.7735 10.7869 17.8553 10.8649 17.9513C10.8649 17.9728 10.8649 17.9942 10.8649 18.0163C10.8863 18.0163 10.9077 18.0163 10.9298 18.0163C10.973 18.0616 10.973 18.0616 11.021 18.122C11.1019 18.2202 11.1856 18.2962 11.2865 18.3741C11.373 18.4564 11.4507 18.5392 11.5257 18.6322C11.6047 18.7301 11.6957 18.8066 11.7939 18.8847C11.8084 18.8987 11.8229 18.9126 11.8379 18.9269C11.8379 18.9484 11.8379 18.9698 11.8379 18.9919C11.8561 18.9997 11.8743 19.0074 11.8931 19.0153C11.9847 19.0665 12.0479 19.1291 12.1222 19.2033C12.151 19.2322 12.1799 19.261 12.2096 19.2907C12.2394 19.3209 12.2693 19.3511 12.3 19.3822C12.3304 19.4124 12.3607 19.4426 12.392 19.4737C12.4207 19.5025 12.4494 19.5313 12.4789 19.5611C12.5053 19.5875 12.5316 19.614 12.5588 19.6413C12.6163 19.7074 12.6163 19.7074 12.6163 19.7724C12.6352 19.7809 12.6541 19.7893 12.6737 19.7979C12.7516 19.8406 12.8029 19.8867 12.8653 19.9498C12.8996 19.9841 12.8996 19.9841 12.9345 20.0192C12.9711 20.0563 12.9711 20.0563 13.0084 20.0942C13.0337 20.1197 13.0591 20.1452 13.0852 20.1715C13.1662 20.2531 13.247 20.3349 13.3277 20.4167C13.382 20.4715 13.4363 20.5262 13.4906 20.5809C13.5905 20.6816 13.6903 20.7824 13.79 20.8833C13.885 20.9794 13.9802 21.0752 14.0757 21.1708C14.1946 21.2901 14.3136 21.4093 14.4325 21.5285C14.3902 21.6219 14.3453 21.6892 14.2733 21.7617C14.254 21.7813 14.2347 21.8008 14.2148 21.821C14.1938 21.842 14.1727 21.8631 14.1509 21.8848C14.1287 21.9073 14.1064 21.9298 14.0835 21.953C14.0099 22.0272 13.936 22.1013 13.8621 22.1753C13.8109 22.2268 13.7597 22.2783 13.7084 22.3298C13.6011 22.4377 13.4936 22.5454 13.386 22.6531C13.248 22.7913 13.1104 22.9298 12.9729 23.0685C12.8672 23.1749 12.7613 23.2811 12.6554 23.3873C12.6045 23.4383 12.5538 23.4893 12.5031 23.5405C12.4323 23.6119 12.3612 23.683 12.29 23.754C12.269 23.7752 12.2481 23.7965 12.2265 23.8184C12.207 23.8377 12.1875 23.857 12.1675 23.8769C12.1507 23.8937 12.1339 23.9105 12.1167 23.9279C12.0544 23.9756 12.0135 23.9937 11.9352 24.0001C11.8812 23.9688 11.8812 23.9688 11.8247 23.9156C11.802 23.8943 11.7793 23.873 11.7558 23.8511C11.7162 23.8121 11.7162 23.8121 11.6757 23.7724C11.6606 23.7577 11.6456 23.7429 11.63 23.7277C11.498 23.5982 11.3677 23.467 11.2375 23.3357C11.1936 23.2915 11.1496 23.2474 11.1057 23.2032C11.0115 23.1086 10.9174 23.0139 10.8234 22.9192C10.6747 22.7695 10.5258 22.6199 10.3769 22.4704C9.95369 22.0452 9.53067 21.6199 9.10779 21.1944C8.87391 20.9591 8.63992 20.7239 8.4058 20.4889C8.25772 20.3402 8.10979 20.1913 7.96196 20.0424C7.87014 19.9499 7.77818 19.8576 7.68619 19.7653C7.64351 19.7225 7.60089 19.6795 7.55832 19.6366C7.5003 19.578 7.44208 19.5196 7.38381 19.4613C7.36695 19.4442 7.35009 19.4271 7.33272 19.4094C7.25103 19.3281 7.1779 19.2629 7.07031 19.2196C7.0938 19.2066 7.11728 19.1937 7.14147 19.1803C7.23814 19.1184 7.31052 19.0514 7.39122 18.9697C7.40616 18.9547 7.42111 18.9397 7.43651 18.9242C7.48554 18.8748 7.53434 18.8252 7.58315 18.7756C7.61742 18.741 7.6517 18.7065 7.686 18.672C7.77607 18.5812 7.86597 18.4903 7.95581 18.3993C8.09955 18.2538 8.24351 18.1085 8.38757 17.9632C8.43768 17.9127 8.48768 17.862 8.53767 17.8113C8.5686 17.78 8.59954 17.7488 8.63049 17.7176C8.6573 17.6904 8.6841 17.6633 8.71172 17.6353C8.78829 17.562 8.86823 17.4966 8.95139 17.431C9.00612 17.3775 9.0601 17.3232 9.11356 17.2684C9.15151 17.2306 9.18952 17.1929 9.22758 17.1552C9.26795 17.115 9.30832 17.0748 9.34869 17.0346C9.37967 17.004 9.37967 17.004 9.41128 16.9727C9.43092 16.9531 9.45057 16.9335 9.47082 16.9133C9.48864 16.8956 9.50646 16.8779 9.52482 16.8597C9.57109 16.8136 9.57109 16.8136 9.60004 16.748Z" fill="#1E3A8A"/>
<path d="M40.1898 20V9.73023H28.893V4.37209H58.5861V9.73023H47.2447V20H40.1898ZM80.557 14.1953V12.186H87.6119V20H66.4026C62.0938 20 58.5887 16.4949 58.5887 12.186C58.5887 7.87721 62.0938 4.37209 66.4026 4.37209H87.6119V10.1767H67.8538C66.6259 10.1767 65.6212 10.9581 65.6212 12.186C65.6212 13.414 66.6259 14.1953 67.8538 14.1953H80.557Z" fill="#1E3A8A"/>
</svg>
